<mxfile host="app.diagrams.net" agent="Mozilla/5.0 (Windows NT 10.0; Win64; x64) AppleWebKit/537.36 (KHTML, like Gecko) Chrome/132.0.0.0 Safari/537.36" version="26.0.6">
  <diagram name="Page-1" id="INzWBAzlje6cWLPP3Oyz">
    <mxGraphModel dx="1290" dy="596" grid="1" gridSize="10" guides="1" tooltips="1" connect="1" arrows="1" fold="1" page="1" pageScale="1" pageWidth="850" pageHeight="1100" math="0" shadow="0">
      <root>
        <mxCell id="0" />
        <mxCell id="1" parent="0" />
        <mxCell id="x2NZFw7HFV6ArKI2WQq_-5" value="VPC" style="points=[[0,0],[0.25,0],[0.5,0],[0.75,0],[1,0],[1,0.25],[1,0.5],[1,0.75],[1,1],[0.75,1],[0.5,1],[0.25,1],[0,1],[0,0.75],[0,0.5],[0,0.25]];outlineConnect=0;gradientColor=none;html=1;whiteSpace=wrap;fontSize=12;fontStyle=0;container=1;pointerEvents=0;collapsible=0;recursiveResize=0;shape=mxgraph.aws4.group;grIcon=mxgraph.aws4.group_vpc2;strokeColor=#8C4FFF;fillColor=none;verticalAlign=top;align=left;spacingLeft=30;fontColor=#AAB7B8;dashed=0;" parent="1" vertex="1">
          <mxGeometry x="40" y="150" width="260" height="270" as="geometry" />
        </mxCell>
        <mxCell id="x2NZFw7HFV6ArKI2WQq_-9" value="Public subnet" style="points=[[0,0],[0.25,0],[0.5,0],[0.75,0],[1,0],[1,0.25],[1,0.5],[1,0.75],[1,1],[0.75,1],[0.5,1],[0.25,1],[0,1],[0,0.75],[0,0.5],[0,0.25]];outlineConnect=0;gradientColor=none;html=1;whiteSpace=wrap;fontSize=12;fontStyle=0;container=1;pointerEvents=0;collapsible=0;recursiveResize=0;shape=mxgraph.aws4.group;grIcon=mxgraph.aws4.group_security_group;grStroke=0;strokeColor=#7AA116;fillColor=#F2F6E8;verticalAlign=top;align=left;spacingLeft=30;fontColor=#248814;dashed=0;" parent="x2NZFw7HFV6ArKI2WQq_-5" vertex="1">
          <mxGeometry x="35" y="50" width="190" height="190" as="geometry" />
        </mxCell>
        <mxCell id="x2NZFw7HFV6ArKI2WQq_-10" value="" style="outlineConnect=0;dashed=0;verticalLabelPosition=bottom;verticalAlign=top;align=center;html=1;shape=mxgraph.aws3.ec2;fillColor=#F58534;gradientColor=none;" parent="x2NZFw7HFV6ArKI2WQq_-9" vertex="1">
          <mxGeometry x="56.75" y="48.5" width="76.5" height="93" as="geometry" />
        </mxCell>
        <mxCell id="x2NZFw7HFV6ArKI2WQq_-22" value="&lt;font style=&quot;font-size: 12px;&quot; face=&quot;Comic Sans MS&quot;&gt;EC2 Instance&lt;/font&gt;" style="text;html=1;align=center;verticalAlign=middle;whiteSpace=wrap;rounded=0;" parent="x2NZFw7HFV6ArKI2WQq_-9" vertex="1">
          <mxGeometry x="50" y="150" width="90" height="30" as="geometry" />
        </mxCell>
        <mxCell id="AQJ0cbqh4HPMUogB_uzW-1" value="&lt;font face=&quot;Comic Sans MS&quot;&gt;&lt;span style=&quot;font-size: 14px;&quot;&gt;CIDR 10.0.0.0/16&lt;/span&gt;&lt;/font&gt;" style="text;html=1;align=center;verticalAlign=middle;whiteSpace=wrap;rounded=0;" vertex="1" parent="x2NZFw7HFV6ArKI2WQq_-5">
          <mxGeometry x="65.88" y="20" width="128.25" height="30" as="geometry" />
        </mxCell>
        <mxCell id="x2NZFw7HFV6ArKI2WQq_-11" value="VPC" style="points=[[0,0],[0.25,0],[0.5,0],[0.75,0],[1,0],[1,0.25],[1,0.5],[1,0.75],[1,1],[0.75,1],[0.5,1],[0.25,1],[0,1],[0,0.75],[0,0.5],[0,0.25]];outlineConnect=0;gradientColor=none;html=1;whiteSpace=wrap;fontSize=12;fontStyle=0;container=1;pointerEvents=0;collapsible=0;recursiveResize=0;shape=mxgraph.aws4.group;grIcon=mxgraph.aws4.group_vpc2;strokeColor=#8C4FFF;fillColor=none;verticalAlign=top;align=left;spacingLeft=30;fontColor=#AAB7B8;dashed=0;" parent="1" vertex="1">
          <mxGeometry x="510" y="150" width="260" height="270" as="geometry" />
        </mxCell>
        <mxCell id="x2NZFw7HFV6ArKI2WQq_-12" value="Public subnet" style="points=[[0,0],[0.25,0],[0.5,0],[0.75,0],[1,0],[1,0.25],[1,0.5],[1,0.75],[1,1],[0.75,1],[0.5,1],[0.25,1],[0,1],[0,0.75],[0,0.5],[0,0.25]];outlineConnect=0;gradientColor=none;html=1;whiteSpace=wrap;fontSize=12;fontStyle=0;container=1;pointerEvents=0;collapsible=0;recursiveResize=0;shape=mxgraph.aws4.group;grIcon=mxgraph.aws4.group_security_group;grStroke=0;strokeColor=#7AA116;fillColor=#F2F6E8;verticalAlign=top;align=left;spacingLeft=30;fontColor=#248814;dashed=0;" parent="x2NZFw7HFV6ArKI2WQq_-11" vertex="1">
          <mxGeometry x="35" y="50" width="190" height="190" as="geometry" />
        </mxCell>
        <mxCell id="x2NZFw7HFV6ArKI2WQq_-13" value="" style="outlineConnect=0;dashed=0;verticalLabelPosition=bottom;verticalAlign=top;align=center;html=1;shape=mxgraph.aws3.ec2;fillColor=#F58534;gradientColor=none;" parent="x2NZFw7HFV6ArKI2WQq_-12" vertex="1">
          <mxGeometry x="56.75" y="48.5" width="76.5" height="93" as="geometry" />
        </mxCell>
        <mxCell id="x2NZFw7HFV6ArKI2WQq_-23" value="EC2 Instance" style="text;whiteSpace=wrap;html=1;" parent="x2NZFw7HFV6ArKI2WQq_-12" vertex="1">
          <mxGeometry x="56.75" y="150" width="110" height="40" as="geometry" />
        </mxCell>
        <mxCell id="AQJ0cbqh4HPMUogB_uzW-2" value="&lt;font face=&quot;Comic Sans MS&quot;&gt;&lt;span style=&quot;font-size: 14px;&quot;&gt;CIDR 10.1.0.0/16&lt;/span&gt;&lt;/font&gt;" style="text;html=1;align=center;verticalAlign=middle;whiteSpace=wrap;rounded=0;" vertex="1" parent="x2NZFw7HFV6ArKI2WQq_-11">
          <mxGeometry x="65.88" y="20" width="128.25" height="30" as="geometry" />
        </mxCell>
        <mxCell id="x2NZFw7HFV6ArKI2WQq_-14" value="" style="outlineConnect=0;dashed=0;verticalLabelPosition=bottom;verticalAlign=top;align=center;html=1;shape=mxgraph.aws3.vpc_peering;fillColor=#F58534;gradientColor=none;" parent="1" vertex="1">
          <mxGeometry x="370" y="249" width="69" height="72" as="geometry" />
        </mxCell>
        <mxCell id="x2NZFw7HFV6ArKI2WQq_-17" value="" style="endArrow=none;html=1;rounded=0;entryX=0;entryY=0.5;entryDx=0;entryDy=0;exitX=1;exitY=0.5;exitDx=0;exitDy=0;exitPerimeter=0;" parent="1" source="x2NZFw7HFV6ArKI2WQq_-14" target="x2NZFw7HFV6ArKI2WQq_-11" edge="1">
          <mxGeometry width="50" height="50" relative="1" as="geometry">
            <mxPoint x="440" y="360" as="sourcePoint" />
            <mxPoint x="490" y="310" as="targetPoint" />
            <Array as="points" />
          </mxGeometry>
        </mxCell>
        <mxCell id="x2NZFw7HFV6ArKI2WQq_-18" value="" style="endArrow=none;html=1;rounded=0;entryX=0;entryY=0.5;entryDx=0;entryDy=0;exitX=1;exitY=0.5;exitDx=0;exitDy=0;exitPerimeter=0;" parent="1" edge="1">
          <mxGeometry width="50" height="50" relative="1" as="geometry">
            <mxPoint x="299" y="284.5" as="sourcePoint" />
            <mxPoint x="370" y="284.5" as="targetPoint" />
            <Array as="points" />
          </mxGeometry>
        </mxCell>
        <mxCell id="x2NZFw7HFV6ArKI2WQq_-19" value="&lt;font face=&quot;Comic Sans MS&quot; style=&quot;font-size: 14px;&quot;&gt;VPC&amp;nbsp;Peering&lt;/font&gt;" style="text;html=1;align=center;verticalAlign=middle;whiteSpace=wrap;rounded=0;" parent="1" vertex="1">
          <mxGeometry x="374.5" y="330" width="60" height="30" as="geometry" />
        </mxCell>
        <mxCell id="x2NZFw7HFV6ArKI2WQq_-20" value="&lt;font face=&quot;Comic Sans MS&quot;&gt;&lt;span style=&quot;font-size: 14px;&quot;&gt;Region 1&lt;/span&gt;&lt;/font&gt;" style="text;html=1;align=center;verticalAlign=middle;whiteSpace=wrap;rounded=0;" parent="1" vertex="1">
          <mxGeometry x="140" y="440" width="60" height="30" as="geometry" />
        </mxCell>
        <mxCell id="x2NZFw7HFV6ArKI2WQq_-21" value="&lt;font face=&quot;Comic Sans MS&quot;&gt;&lt;span style=&quot;font-size: 14px;&quot;&gt;Region 2&lt;/span&gt;&lt;/font&gt;" style="text;html=1;align=center;verticalAlign=middle;whiteSpace=wrap;rounded=0;" parent="1" vertex="1">
          <mxGeometry x="620" y="440" width="60" height="30" as="geometry" />
        </mxCell>
      </root>
    </mxGraphModel>
  </diagram>
</mxfile>
